<svg width="100%" height="100%" viewBox="0 0 512 512" version="1.1" xmlns="http://www.w3.org/2000/svg" xmlns:xlink="http://www.w3.org/1999/xlink" xml:space="preserve" xmlns:serif="http://www.serif.com/" style="fill-rule:evenodd;clip-rule:evenodd;stroke-linejoin:round;stroke-miterlimit:2;">
    <g id="SvgjsG1003" transform="matrix(1.78397,0,0,1.78397,-231.916,-153.422)">
        <path d="M417,143.4C417,111.72 391.28,86 359.6,86L187.4,86C155.72,86 130,111.72 130,143.4L130,315.6C130,347.28 155.72,373 187.4,373L359.6,373C391.28,373 417,347.28 417,315.6L417,143.4Z"></path>
    </g>
    <g id="SvgjsG1002" transform="matrix(1,0,0,1,-131.244,124.843)">
        <path id="SvgjsPath1001" d="M530.744,216.457C524.878,216.457 520.444,214.857 517.444,211.657C514.444,208.457 512.944,204.257 512.944,199.057C512.944,193.057 514.644,188.257 518.044,184.657C521.444,181.057 526.211,179.257 532.344,179.257C538.211,179.257 542.644,180.691 545.644,183.557C548.644,186.424 550.144,190.657 550.144,196.257C550.144,202.391 548.411,207.291 544.944,210.957C541.478,214.624 536.744,216.457 530.744,216.457Z" style="fill:white;fill-rule:nonzero;"></path>
        <path id="SvgjsPath1000" d="M271.344,216.457C266.411,216.457 262.878,215.357 260.744,213.157C258.611,210.957 257.544,206.791 257.544,200.657C257.544,196.524 257.978,191.224 258.844,184.757C259.711,178.291 261.144,169.391 263.144,158.057C266.611,137.124 269.344,118.991 271.344,103.657C272.544,94.057 273.144,86.057 273.144,79.657C273.144,73.657 270.944,70.657 266.544,70.657C263.078,70.657 258.911,72.424 254.044,75.957C249.178,79.491 243.811,85.124 237.944,92.857C236.078,95.391 234.011,96.657 231.744,96.657C229.878,96.657 228.244,95.757 226.844,93.957C225.444,92.157 224.744,90.124 224.744,87.857C224.744,85.724 225.178,83.557 226.044,81.357C226.911,79.157 228.344,76.657 230.344,73.857C236.744,64.924 243.878,58.024 251.744,53.157C259.611,48.291 267.478,45.857 275.344,45.857C282.678,45.857 288.311,48.191 292.244,52.857C296.178,57.524 298.144,64.324 298.144,73.257C298.144,76.857 297.811,81.091 297.144,85.957C296.478,90.824 295.878,94.791 295.344,97.857C294.811,100.924 294.411,103.057 294.144,104.257C301.744,82.524 310.278,67.357 319.744,58.757C329.211,50.157 339.611,45.857 350.944,45.857C359.611,45.857 366.444,48.924 371.444,55.057C376.444,61.191 378.944,69.857 378.944,81.057C378.944,85.457 378.344,90.924 377.144,97.457C383.811,79.057 391.611,65.857 400.544,57.857C409.478,49.857 419.744,45.857 431.344,45.857C440.678,45.857 447.844,48.857 452.844,54.857C457.844,60.857 460.344,69.257 460.344,80.057C460.344,85.924 459.478,93.057 457.744,101.457L445.544,158.657C444.211,165.324 443.544,171.057 443.544,175.857C443.544,181.457 444.844,185.657 447.444,188.457C450.044,191.257 453.678,192.657 458.344,192.657C462.744,192.657 467.044,191.191 471.244,188.257C475.444,185.324 480.411,180.457 486.144,173.657C487.744,171.791 489.544,170.857 491.544,170.857C493.278,170.857 494.644,171.657 495.644,173.257C496.644,174.857 497.144,177.057 497.144,179.857C497.144,185.057 495.878,189.191 493.344,192.257C486.411,200.657 479.544,206.791 472.744,210.657C465.944,214.524 458.811,216.457 451.344,216.457C440.011,216.457 431.144,213.091 424.744,206.357C418.344,199.624 415.144,190.591 415.144,179.257C415.144,171.391 416.744,159.991 419.944,145.057L427.944,108.457C428.211,107.257 428.678,105.124 429.344,102.057C430.011,98.991 430.544,96.091 430.944,93.357C431.344,90.624 431.544,87.924 431.544,85.257C431.544,80.591 430.644,77.091 428.844,74.757C427.044,72.424 424.478,71.257 421.144,71.257C414.878,71.257 408.311,75.291 401.444,83.357C394.578,91.424 388.044,104.791 381.844,123.457C375.644,142.124 370.611,166.391 366.744,196.257C365.811,204.257 364.178,209.624 361.844,212.357C359.511,215.091 355.744,216.457 350.544,216.457C346.011,216.457 342.711,215.391 340.644,213.257C338.578,211.124 337.544,207.124 337.544,201.257C337.544,195.791 338.278,188.624 339.744,179.757C341.211,170.891 343.078,160.457 345.344,148.457C351.478,116.191 354.544,95.391 354.544,86.057C354.544,80.991 353.578,77.257 351.644,74.857C349.711,72.457 346.811,71.257 342.944,71.257C336.411,71.257 329.678,74.957 322.744,82.357C315.811,89.757 309.044,102.891 302.444,121.757C295.844,140.624 290.344,166.124 285.944,198.257C285.011,205.057 283.644,209.791 281.844,212.457C280.044,215.124 276.544,216.457 271.344,216.457Z" style="fill:white;fill-rule:nonzero;"></path>
    </g>
    <style>
    @media (prefers-color-scheme: light) { :root { filter: none; } }
    @media (prefers-color-scheme: dark) { :root { filter: invert(100%); } }
    </style>
</svg>