<svg width="196" height="196" fill="none" xmlns="http://www.w3.org/2000/svg"><g clip-path="url(#clip0_3_15)"><g clip-path="url(#clip1_3_15)"><path fill="#000" d="M0 0h196v196H0z"/><path d="M51.833 131.391c-1.889 0-3.241-.409-4.058-1.225-.817-.868-1.225-2.476-1.225-4.824 0-1.582.153-3.598.46-6.048.357-2.501.918-5.921 1.684-10.26 1.327-8.013 2.373-14.955 3.139-20.825.46-3.675.689-6.737.689-9.187 0-2.297-.842-3.445-2.527-3.445-1.327 0-2.935.689-4.823 2.067-1.838 1.327-3.88 3.47-6.125 6.431-.715.97-1.506 1.455-2.374 1.455-.714 0-1.352-.332-1.914-.996a3.991 3.991 0 0 1-.765-2.373c0-.817.153-1.633.46-2.45.356-.868.918-1.838 1.684-2.91 2.45-3.42 5.18-6.048 8.192-7.885 3.011-1.889 6.023-2.833 9.034-2.833 2.807 0 4.951.893 6.431 2.68 1.532 1.786 2.297 4.39 2.297 7.809 0 1.378-.127 3.011-.383 4.9a138.548 138.548 0 0 1-.689 4.517 63.003 63.003 0 0 1-.46 2.45c2.91-8.32 6.177-14.113 9.8-17.38 3.625-3.317 7.606-4.976 11.945-4.976 3.317 0 5.92 1.174 7.81 3.522 1.939 2.348 2.908 5.665 2.908 9.953 0 1.684-.23 3.777-.689 6.278 2.552-7.044 5.538-12.097 8.958-15.16 3.42-3.062 7.35-4.593 11.791-4.593 3.573 0 6.303 1.148 8.192 3.445 1.94 2.297 2.909 5.513 2.909 9.647 0 2.246-.331 4.977-.995 8.192l-4.67 21.897c-.511 2.552-.766 4.747-.766 6.584 0 2.144.485 3.752 1.455 4.824 1.021 1.072 2.424 1.608 4.211 1.608 1.684 0 3.317-.562 4.9-1.685 1.633-1.123 3.547-2.986 5.742-5.589.612-.714 1.302-1.072 2.067-1.072.664 0 1.174.307 1.531.919.409.613.613 1.455.613 2.527 0 1.99-.485 3.573-1.455 4.747-2.654 3.215-5.283 5.563-7.886 7.043-2.603 1.481-5.334 2.221-8.192 2.221-4.338 0-7.733-1.276-10.183-3.829-2.45-2.603-3.675-6.073-3.675-10.412 0-3.011.613-7.376 1.838-13.092l3.062-14.011c.102-.46.281-1.276.536-2.45a51.69 51.69 0 0 0 .613-3.292c.153-1.072.229-2.119.229-3.14 0-1.786-.357-3.113-1.071-3.98-.664-.92-1.634-1.379-2.91-1.379-2.399 0-4.925 1.557-7.58 4.67-2.603 3.063-5.104 8.167-7.503 15.313-2.348 7.146-4.262 16.435-5.742 27.869-.357 3.062-.995 5.129-1.914 6.201-.868 1.021-2.297 1.532-4.287 1.532-1.736 0-3.012-.409-3.829-1.225-.765-.817-1.148-2.348-1.148-4.594 0-2.093.28-4.824.842-8.192.562-3.42 1.276-7.427 2.144-12.021 2.348-12.352 3.522-20.314 3.522-23.887 0-1.94-.383-3.369-1.149-4.288-.714-.918-1.812-1.378-3.292-1.378-2.5 0-5.079 1.43-7.733 4.288-2.654 2.807-5.257 7.835-7.809 15.083-2.501 7.196-4.594 16.945-6.278 29.246-.357 2.604-.893 4.416-1.608 5.436-.663 1.021-1.99 1.532-3.981 1.532Z" fill="#fff"/><path d="M151.143 131.391c-2.246 0-3.956-.613-5.13-1.838-1.123-1.225-1.684-2.833-1.684-4.823 0-2.297.638-4.135 1.914-5.513 1.327-1.378 3.164-2.067 5.512-2.067 2.246 0 3.93.561 5.053 1.684 1.174 1.072 1.761 2.68 1.761 4.824 0 2.348-.663 4.236-1.99 5.665-1.327 1.379-3.139 2.068-5.436 2.068Z" fill="#E76E50"/></g></g><defs><clipPath id="clip0_3_15"><path fill="#fff" d="M0 0h196v196H0z"/></clipPath><clipPath id="clip1_3_15"><rect width="196" height="196" rx="39.2" fill="#fff"/></clipPath></defs><style>@media (prefers-color-scheme:light){:root{filter:none}}@media (prefers-color-scheme:dark){:root{filter:invert(100%)}}</style></svg>