<svg width="16" height="16" fill="none" xmlns="http://www.w3.org/2000/svg"><g clip-path="url(#a)"><g clip-path="url(#b)"><path fill-rule="evenodd" clip-rule="evenodd" d="M.289 1.447C0 2.014 0 2.756 0 4.24v7.52c0 1.484 0 2.226.289 2.793.254.499.66.904 1.158 1.158C2.014 16 2.756 16 4.24 16h7.52c1.484 0 2.226 0 2.793-.289a2.65 2.65 0 0 0 1.158-1.158C16 13.986 16 13.244 16 11.76V4.24c0-1.484 0-2.226-.289-2.793A2.65 2.65 0 0 0 14.553.289C13.986 0 13.244 0 11.76 0H4.24C2.756 0 2.014 0 1.447.289A2.65 2.65 0 0 0 .289 1.447ZM3.9 10.462c.067.067.177.1.331.1.163 0 .271-.041.325-.124.059-.084.102-.232.131-.444.138-1.004.309-1.8.513-2.388.208-.591.42-1.002.638-1.231.216-.233.427-.35.63-.35.122 0 .211.037.27.112.062.076.093.192.093.35 0 .292-.096.942-.287 1.95-.071.376-.13.703-.175.982a4.256 4.256 0 0 0-.069.668c0 .184.031.309.094.376.066.066.17.1.312.1.163 0 .28-.042.35-.126.075-.087.127-.256.157-.506.12-.933.277-1.691.468-2.275.196-.583.4-1 .613-1.25.216-.254.423-.381.618-.381.105 0 .184.037.238.112.058.071.088.18.088.326 0 .083-.007.168-.02.256-.012.083-.028.173-.05.268l-.043.2-.25 1.144c-.1.467-.15.823-.15 1.069 0 .354.1.637.3.85.2.208.477.313.831.313.234 0 .457-.06.669-.182.213-.12.427-.312.644-.575a.59.59 0 0 0 .118-.387.369.369 0 0 0-.05-.207.137.137 0 0 0-.124-.075c-.063 0-.12.03-.17.088-.178.213-.335.365-.468.456a.683.683 0 0 1-.4.138.452.452 0 0 1-.344-.132c-.079-.087-.118-.218-.118-.393 0-.15.02-.33.062-.538l.381-1.787c.054-.263.082-.486.082-.669 0-.337-.08-.6-.238-.787-.154-.188-.377-.282-.669-.282a1.4 1.4 0 0 0-.962.375c-.28.25-.523.663-.732 1.238.038-.204.057-.375.057-.513 0-.35-.08-.62-.238-.812-.154-.192-.366-.288-.637-.288-.354 0-.68.136-.975.407-.296.266-.563.74-.8 1.418a11.3 11.3 0 0 0 .094-.569c.02-.154.03-.287.03-.4 0-.279-.062-.491-.187-.637-.12-.146-.296-.219-.525-.219-.246 0-.491.077-.737.232a2.32 2.32 0 0 0-.669.643 1.22 1.22 0 0 0-.138.238.566.566 0 0 0-.037.2c0 .07.02.135.063.194.045.054.097.08.156.08.07 0 .135-.039.193-.118.184-.242.35-.417.5-.525.155-.112.286-.169.394-.169.138 0 .206.094.206.281 0 .2-.018.45-.056.75-.062.48-.148 1.046-.256 1.7-.063.355-.108.634-.138.838-.025.2-.037.365-.037.494 0 .191.033.323.1.393Zm8.02-.05c.095.1.235.15.418.15a.587.587 0 0 0 .444-.168.652.652 0 0 0 .162-.463c0-.175-.048-.306-.143-.393-.092-.092-.23-.138-.413-.138-.191 0-.341.056-.45.169a.636.636 0 0 0-.156.45.56.56 0 0 0 .137.393Z" fill="#fff"/></g></g><defs><clipPath id="a"><path fill="#fff" d="M0 0h16v16H0z"/></clipPath><clipPath id="b"><path fill="#fff" d="M0 0h16v16H0z"/></clipPath></defs></svg>