<svg width="100%" height="100%" viewBox="0 0 16 16" version="1.1" xmlns="http://www.w3.org/2000/svg" xmlns:xlink="http://www.w3.org/1999/xlink" xml:space="preserve" xmlns:serif="http://www.serif.com/" style="fill-rule:evenodd;clip-rule:evenodd;stroke-linejoin:round;stroke-miterlimit:2;">
    <path id="mask-icon" d="M16,3.2c0,-1.766 -1.434,-3.2 -3.2,-3.2l-9.6,0c-1.766,0 -3.2,1.434 -3.2,3.2l-0,9.6c-0,1.766 1.434,3.2 3.2,3.2l9.6,0c1.766,0 3.2,-1.434 3.2,-3.2l0,-9.6Zm-11.622,7.466c-0.154,-0 -0.264,-0.035 -0.331,-0.104c-0.067,-0.068 -0.1,-0.198 -0.1,-0.39c-0,-0.129 0.013,-0.295 0.04,-0.497c0.028,-0.202 0.072,-0.48 0.135,-0.834c0.108,-0.655 0.194,-1.221 0.256,-1.7c0.038,-0.3 0.056,-0.55 0.056,-0.75c0,-0.188 -0.068,-0.282 -0.206,-0.282c-0.108,0 -0.238,0.056 -0.391,0.166c-0.152,0.11 -0.319,0.286 -0.503,0.528c-0.058,0.079 -0.123,0.119 -0.193,0.119c-0.059,-0 -0.11,-0.028 -0.153,-0.085c-0.044,-0.056 -0.066,-0.119 -0.066,-0.19c-0,-0.067 0.013,-0.135 0.04,-0.203c0.028,-0.069 0.072,-0.147 0.135,-0.235c0.2,-0.279 0.423,-0.494 0.669,-0.647c0.245,-0.152 0.491,-0.228 0.737,-0.228c0.229,0 0.405,0.073 0.528,0.219c0.123,0.146 0.185,0.358 0.185,0.638c-0,0.112 -0.011,0.244 -0.032,0.396c-0.02,0.153 -0.039,0.277 -0.056,0.372c-0.017,0.096 -0.029,0.163 -0.037,0.2c0.237,-0.679 0.504,-1.153 0.8,-1.422c0.295,-0.268 0.62,-0.403 0.975,-0.403c0.27,0 0.484,0.096 0.64,0.288c0.157,0.192 0.235,0.462 0.235,0.812c-0,0.138 -0.019,0.309 -0.057,0.513c0.209,-0.575 0.452,-0.988 0.732,-1.238c0.279,-0.25 0.6,-0.375 0.962,-0.375c0.292,0 0.516,0.094 0.672,0.282c0.156,0.187 0.234,0.45 0.234,0.787c0,0.183 -0.027,0.406 -0.081,0.669l-0.381,1.787c-0.042,0.209 -0.063,0.388 -0.063,0.538c0,0.175 0.041,0.306 0.122,0.394c0.082,0.087 0.195,0.131 0.341,0.131c0.137,-0 0.272,-0.046 0.403,-0.138c0.131,-0.091 0.286,-0.243 0.466,-0.456c0.05,-0.058 0.106,-0.087 0.168,-0.087c0.055,-0 0.097,0.025 0.129,0.075c0.031,0.05 0.046,0.118 0.046,0.206c0,0.162 -0.039,0.292 -0.118,0.387c-0.217,0.263 -0.432,0.455 -0.644,0.575c-0.213,0.121 -0.436,0.182 -0.669,0.182c-0.354,-0 -0.631,-0.106 -0.831,-0.316c-0.2,-0.21 -0.3,-0.493 -0.3,-0.847c-0,-0.246 0.05,-0.602 0.15,-1.069l0.25,-1.143c0.008,-0.038 0.023,-0.105 0.044,-0.2c0.02,-0.096 0.037,-0.187 0.05,-0.272c0.012,-0.086 0.018,-0.17 0.018,-0.253c0,-0.146 -0.028,-0.256 -0.084,-0.329c-0.056,-0.072 -0.136,-0.109 -0.241,-0.109c-0.195,0 -0.401,0.126 -0.615,0.378c-0.215,0.252 -0.419,0.67 -0.613,1.253c-0.193,0.584 -0.351,1.342 -0.472,2.275c-0.029,0.25 -0.08,0.418 -0.153,0.503c-0.073,0.086 -0.19,0.129 -0.353,0.129c-0.142,-0 -0.245,-0.034 -0.309,-0.1c-0.065,-0.067 -0.097,-0.192 -0.097,-0.375c-0,-0.171 0.023,-0.395 0.069,-0.672c0.045,-0.277 0.104,-0.603 0.175,-0.978c0.191,-1.009 0.287,-1.659 0.287,-1.95c0,-0.159 -0.03,-0.275 -0.09,-0.35c-0.061,-0.075 -0.152,-0.113 -0.272,-0.113c-0.205,0 -0.415,0.116 -0.632,0.347c-0.216,0.231 -0.428,0.642 -0.634,1.231c-0.206,0.59 -0.378,1.387 -0.516,2.391c-0.029,0.212 -0.071,0.36 -0.128,0.444c-0.056,0.083 -0.165,0.125 -0.328,0.125Zm8.106,-0c-0.183,-0 -0.321,-0.05 -0.415,-0.15c-0.094,-0.1 -0.141,-0.232 -0.141,-0.394c0,-0.188 0.053,-0.338 0.16,-0.45c0.106,-0.113 0.255,-0.169 0.446,-0.169c0.184,0 0.322,0.045 0.416,0.134c0.094,0.09 0.141,0.222 0.141,0.397c-0,0.192 -0.055,0.345 -0.163,0.46c-0.108,0.114 -0.256,0.172 -0.444,0.172Z"/>
</svg>