<?xml version="1.0" encoding="UTF-8" standalone="no"?>
<!DOCTYPE svg PUBLIC "-//W3C//DTD SVG 1.1//EN" "http://www.w3.org/Graphics/SVG/1.1/DTD/svg11.dtd">
<svg width="100%" height="100%" viewBox="0 0 512 512" version="1.1" xmlns="http://www.w3.org/2000/svg" xmlns:xlink="http://www.w3.org/1999/xlink" xml:space="preserve" xmlns:serif="http://www.serif.com/" style="fill-rule:evenodd;clip-rule:evenodd;stroke-linejoin:round;stroke-miterlimit:2;">
    <path id="mask-icon" d="M512,102.4C512,45.884 466.116,0 409.6,0L102.4,0C45.884,0 0,45.884 0,102.4L0,409.6C0,466.116 45.884,512 102.4,512L409.6,512C466.116,512 512,466.116 512,409.6L512,102.4ZM140.1,341.3C135.167,341.3 131.633,340.2 129.5,338C127.367,335.8 126.3,331.633 126.3,325.5C126.3,321.367 126.733,316.067 127.6,309.6C128.467,303.133 129.9,294.233 131.9,282.9C135.367,261.967 138.1,243.833 140.1,228.5C141.3,218.9 141.9,210.9 141.9,204.5C141.9,198.5 139.7,195.5 135.3,195.5C131.833,195.5 127.667,197.267 122.8,200.8C117.933,204.333 112.567,209.967 106.7,217.7C104.833,220.233 102.767,221.5 100.5,221.5C98.633,221.5 97,220.6 95.6,218.8C94.2,217 93.5,214.967 93.5,212.7C93.5,210.567 93.933,208.4 94.8,206.2C95.667,204 97.1,201.5 99.1,198.7C105.5,189.767 112.633,182.867 120.5,178C128.367,173.133 136.233,170.7 144.1,170.7C151.433,170.7 157.067,173.033 161,177.7C164.933,182.367 166.9,189.167 166.9,198.1C166.9,201.7 166.567,205.933 165.9,210.8C165.233,215.667 164.633,219.633 164.1,222.7C163.567,225.767 163.167,227.9 162.9,229.1C170.5,207.367 179.033,192.2 188.5,183.6C197.967,175 208.367,170.7 219.7,170.7C228.367,170.7 235.2,173.767 240.2,179.9C245.2,186.033 247.7,194.7 247.7,205.9C247.7,210.3 247.1,215.767 245.9,222.3C252.567,203.9 260.367,190.7 269.3,182.7C278.233,174.7 288.5,170.7 300.1,170.7C309.433,170.7 316.6,173.7 321.6,179.7C326.6,185.7 329.1,194.1 329.1,204.9C329.1,210.767 328.233,217.9 326.5,226.3L314.3,283.5C312.967,290.167 312.3,295.9 312.3,300.7C312.3,306.3 313.6,310.5 316.2,313.3C318.8,316.1 322.433,317.5 327.1,317.5C331.5,317.5 335.8,316.033 340,313.1C344.2,310.167 349.167,305.3 354.9,298.5C356.5,296.633 358.3,295.7 360.3,295.7C362.033,295.7 363.4,296.5 364.4,298.1C365.4,299.7 365.9,301.9 365.9,304.7C365.9,309.9 364.633,314.033 362.1,317.1C355.167,325.5 348.3,331.633 341.5,335.5C334.7,339.367 327.567,341.3 320.1,341.3C308.767,341.3 299.9,337.933 293.5,331.2C287.1,324.467 283.9,315.433 283.9,304.1C283.9,296.233 285.5,284.833 288.7,269.9L296.7,233.3C296.967,232.1 297.433,229.967 298.1,226.9C298.767,223.833 299.3,220.933 299.7,218.2C300.1,215.467 300.3,212.767 300.3,210.1C300.3,205.433 299.4,201.933 297.6,199.6C295.8,197.267 293.233,196.1 289.9,196.1C283.633,196.1 277.067,200.133 270.2,208.2C263.333,216.267 256.8,229.633 250.6,248.3C244.4,266.967 239.367,291.233 235.5,321.1C234.567,329.1 232.933,334.467 230.6,337.2C228.267,339.933 224.5,341.3 219.3,341.3C214.767,341.3 211.467,340.233 209.4,338.1C207.333,335.967 206.3,331.967 206.3,326.1C206.3,320.633 207.033,313.467 208.5,304.6C209.967,295.733 211.833,285.3 214.1,273.3C220.233,241.033 223.3,220.233 223.3,210.9C223.3,205.833 222.333,202.1 220.4,199.7C218.467,197.3 215.567,196.1 211.7,196.1C205.167,196.1 198.433,199.8 191.5,207.2C184.567,214.6 177.8,227.733 171.2,246.6C164.6,265.467 159.1,290.967 154.7,323.1C153.767,329.9 152.4,334.633 150.6,337.3C148.8,339.967 145.3,341.3 140.1,341.3ZM399.5,341.3C393.633,341.3 389.2,339.7 386.2,336.5C383.2,333.3 381.7,329.1 381.7,323.9C381.7,317.9 383.4,313.1 386.8,309.5C390.2,305.9 394.967,304.1 401.1,304.1C406.967,304.1 411.4,305.533 414.4,308.4C417.4,311.267 418.9,315.5 418.9,321.1C418.9,327.233 417.167,332.133 413.7,335.8C410.233,339.467 405.5,341.3 399.5,341.3Z"/>
</svg>
